# xmcd
#
# Track frame offsets: 
#        150
#        8596
#        12423
#        26971
#        35619
#        45886
#        50497
#        54531
#        65293
#        76267
#        87454
#        99282
#        112827
#        136417
#        148405
#        160180
#        171705
#        183669
#        195396
#        206799
#        224628
#        235895
#        247354
#        269418
#        279411
#        284597
#        296157
#        308486
#        318729
#        332653
#        345944
#
# Disc length: 4746 seconds
#
# Revision: 0
# Processed by: cddbd v1.5.2PL0 Copyright (c) Steve Scherf et al.
# Submitted via: ExactAudioCopy v0.95b3
#
DISCID=dc12881f
DTITLE=The Monkees - The Monkees Complete 08 of 28 
DYEAR=1900
DGENRE=
TTITLE0=Cripple Creek
TTITLE1=Don't Be Cruel
TTITLE2=Early Morning Blues and Greens (backing track)
TTITLE3=Fever
TTITLE4=For Pete's Sake (alt. mix 1)
TTITLE5=For Pete's Sake (alt. mix 2)
TTITLE6=For Pete's Sake (alt. mix 3)
TTITLE7=For Pete's Sake (backing track)
TTITLE8=Forget That Girl (alt. mix 1)
TTITLE9=Forget That Girl (alt. mix 2)
TTITLE10=Forget That Girl (backing track)
TTITLE11=Forget That Girl (rehearsal)
TTITLE12=Forget That Girl (rejected overdub session)
TTITLE13=Forget That Girl (rough backing vocals)
TTITLE14=I Can't Get Her Off My Mind (backing track)
TTITLE15=I Was Born In East Virginia
TTITLE16=If I Learned To Play The Violin
TTITLE17=I'll Spend My Life With You (backing track)
TTITLE18=Jericho
TTITLE19=Just A Game (demo takes)
TTITLE20=Love To Love
TTITLE21=Love To Love (mono)
TTITLE22=Masking Tape (tracking sessions)
TTITLE23=Memphis Tennessee
TTITLE24=Micky In Carlsbad Cavern
TTITLE25=Midnight Train (demo)
TTITLE26=Monkee Chat
TTITLE27=Mr. Webster (tracking session)
TTITLE28=Mustang
TTITLE29=Mustang (alt. mix)
TTITLE30=Nine Times Blue (demo)
EXTD=
EXTT0=
EXTT1=
EXTT2=
EXTT3=
EXTT4=
EXTT5=
EXTT6=
EXTT7=
EXTT8=
EXTT9=
EXTT10=
EXTT11=
EXTT12=
EXTT13=
EXTT14=
EXTT15=
EXTT16=
EXTT17=
EXTT18=
EXTT19=
EXTT20=
EXTT21=
EXTT22=
EXTT23=
EXTT24=
EXTT25=
EXTT26=
EXTT27=
EXTT28=
EXTT29=
EXTT30=
PLAYORDER=
